<?xml version="1.0" encoding="utf-8"?>
<!-- Generator: Adobe Illustrator 25.0.0, SVG Export Plug-In . SVG Version: 6.00 Build 0)  -->
<svg version="1.0" id="Layer_1" xmlns="http://www.w3.org/2000/svg" xmlns:xlink="http://www.w3.org/1999/xlink" x="0px" y="0px"
	 viewBox="0 0 512 512" style="enable-background:new 0 0 512 512;" xml:space="preserve">
<g>
	<g>
		<path style="fill:#92E5FF;" d="M327.9,354c-5.7-31-31.5-67.6-58.3-76.5c-18.2-8.5-38.2-7.8-38.2-7.8l-19.7-2
			c0,0-41.5,2.4-62.7,25.8c-31.6,34.7-24.7,87.8-24.7,87.8l159.8,4.2c0,0,0-0.2-0.1-0.5C297.3,384.9,333.1,382.3,327.9,354z"/>
		<path style="fill:#231F20;" d="M284,386.4C284,386.4,284,386.4,284,386.4l-159.8-4.2c-0.5,0-0.9-0.4-0.9-0.8
			c-0.1-0.5-6.5-54,25-88.6c21.3-23.4,63-26.1,63.4-26.1c0.1,0,0.1,0,0.2,0l19.6,2c1.3,0,20.8-0.4,38.5,7.8
			c28.4,9.5,53.4,47.5,58.9,77.2c1.4,7.7,0,14.2-4.2,19.2c-9.3,11.2-30.2,12.8-39.7,12.9c0,0.1-0.1,0.1-0.1,0.2
			C284.5,386.3,284.3,386.4,284,386.4z M125.1,380.4l158,4.1c0-0.1,0.1-0.1,0.1-0.2c0.2-0.2,0.4-0.3,0.7-0.3
			c8.8,0,30.1-1.2,39.2-12.2c3.8-4.6,5.1-10.6,3.8-17.7c-5.4-29.2-29.9-66.6-57.7-75.8c0,0-0.1,0-0.1,0c-17.8-8.3-37.5-7.7-37.7-7.7
			c0,0-0.1,0-0.1,0l-19.6-2c-2,0.1-41.7,3.1-62,25.5C120.9,325.8,124.4,373.6,125.1,380.4z"/>
	</g>
	<g>
		<path style="fill:#92E5FF;" d="M321.5,383c2.9-2.5,5.5-5.2,7.8-8.4l-16.1-24.4c0,0-57.9,1.3-92.6,20.6c0,0-6.4,4.5-6.4,9l-4,3.2
			H321.5z"/>
		<path style="fill:#231F20;" d="M321.5,384H210.1c-0.4,0-0.8-0.3-0.9-0.6c-0.1-0.4,0-0.8,0.3-1.1l3.7-2.9c0.4-4.8,6.5-9.1,6.8-9.3
			c34.6-19.2,92.6-20.7,93.1-20.8c0.4,0,0.6,0.2,0.8,0.4l16.1,24.4c0.2,0.3,0.2,0.8,0,1.1c-2.2,3.1-4.9,5.9-8,8.5
			C321.9,383.9,321.7,384,321.5,384z M212.8,382.1h108.3c2.6-2.3,5-4.8,7-7.4l-15.4-23.4c-5.9,0.2-59.3,2.5-91.7,20.4
			c-1.6,1.1-5.9,4.9-5.9,8.2c0,0.3-0.1,0.6-0.4,0.7L212.8,382.1z"/>
	</g>
	<g>
		<path style="fill:#231F20;" d="M277.9,353.3c-0.5,0-0.8-0.3-0.9-0.8l-6-32.8c-0.1-0.5,0.2-1,0.8-1.1c0.5-0.1,1,0.2,1.1,0.8l6,32.8
			c0.1,0.5-0.2,1-0.8,1.1C278,353.3,278,353.3,277.9,353.3z"/>
	</g>
	<g>
		<path style="fill:#231F20;" d="M144.7,383.6h-105c-0.5,0-1-0.4-1-1s0.4-1,1-1h105c0.5,0,1,0.4,1,1S145.2,383.6,144.7,383.6z"/>
	</g>
	<g>
		<path style="fill:#231F20;" d="M472.2,383.6h-95c-0.5,0-1-0.4-1-1s0.4-1,1-1h95c0.5,0,1,0.4,1,1S472.8,383.6,472.2,383.6z"/>
	</g>
	<g>
		<path style="fill:#414042;" d="M202.9,168.8c0,0,8.4-14.4,27.1-7.6c0,0-7.3,2.7-8.2,5c0,0,26.2,1.2,28.7,17.5
			c2.5,16.3-3.2,23-3.2,23l-64.8,38.7c0,0-6.3-2.9-14.6-8.8c-8.4-5.9-12.5-37.6-5.6-45.8c6.9-8.2,18.5-15.1,18.5-15.1
			S191.8,165.7,202.9,168.8z"/>
		<path style="fill:#231F20;" d="M182.5,246.5c-0.1,0-0.3,0-0.4-0.1c-0.3-0.1-6.4-3-14.8-8.9c-4.9-3.4-7.8-13.9-8.9-22.5
			c-1.1-8.8-0.9-20,3.1-24.7c6.7-7.9,17.5-14.6,18.6-15.3c1.1-0.9,11.5-9.9,22.3-7.3c1.9-2.8,10.9-13.6,27.8-7.4
			c0.4,0.1,0.6,0.5,0.6,0.9c0,0.4-0.2,0.8-0.6,0.9c-2.4,0.9-5.1,2.2-6.6,3.3c6.2,0.6,25.5,3.7,27.8,18.2c2.5,16.6-3.2,23.5-3.4,23.8
			c-0.1,0.1-0.1,0.1-0.2,0.2L183,246.3C182.9,246.4,182.7,246.5,182.5,246.5z M198.5,169.1c-9,0-17,7.3-17.1,7.4
			c0,0-0.1,0.1-0.2,0.1c-0.1,0.1-11.5,7-18.2,14.9c-3,3.5-4,12.7-2.7,23.2c1.3,10.2,4.6,18.7,8.1,21.2c6.9,4.9,12.5,7.7,14,8.5
			l64.2-38.3c0.7-0.9,5.2-7.7,2.9-22.2c-2.4-15.4-27.6-16.7-27.9-16.7c-0.3,0-0.6-0.2-0.7-0.4s-0.2-0.6-0.1-0.9
			c0.6-1.8,3.9-3.5,6.3-4.6c-16-4.5-23.2,7.4-23.5,7.9c-0.2,0.4-0.7,0.6-1.1,0.4C201.3,169.3,199.9,169.1,198.5,169.1z"/>
	</g>
	<g>
		<path style="fill:#FFC89F;" d="M237.1,265.2l1.1,12c0.6,6.5-3.6,12.6-10,14.2c-0.1,0-0.2,0.1-0.3,0.1c-7.4,1.9-14.9-2.8-16.6-10.1
			c-1.7-7.5-3-17.3-1.1-25.2"/>
		<path style="fill:#231F20;" d="M224.5,292.9c-2.7,0-5.3-0.7-7.6-2.2c-3.4-2.1-5.7-5.3-6.5-9.1c-1.6-7.2-3.1-17.5-1.1-25.6
			c0.1-0.5,0.6-0.8,1.1-0.7c0.5,0.1,0.8,0.6,0.7,1.1c-1.9,7.8-0.4,17.8,1.1,24.8c0.7,3.3,2.8,6.1,5.7,7.9c2.9,1.8,6.4,2.4,9.7,1.5
			l0.3-0.1c6-1.5,9.9-7.1,9.3-13.2l-1.1-12c0-0.5,0.3-1,0.9-1c0.5,0,1,0.3,1,0.9l1.1,12c0.7,7.1-3.9,13.5-10.8,15.3l-0.3,0.1
			C226.9,292.8,225.7,292.9,224.5,292.9z"/>
	</g>
	<g>
		<path style="fill:#FFC89F;" d="M228.7,181.7c4.1-0.4,8.1,1.5,10.5,4.9c3.3,4.7,8.2,13.3,8.4,22.8c0.2,14.2,8.4,28,5.2,41.4
			s-17.2,17.5-34,17.1c-17.1-0.4-24-20.8-24-20.8s-1.5,9.7-13.2,7.4c-11.7-2.3-15.2-14.5-12.7-19.3c2.5-4.8,11.5-8.4,19,1.9l2.3,2.7
			c0,0,2.1-17.6,0.2-26.4c-1.9-8.8,15-18.6,15-18.6s12.7-5.7,22.3,1.4c0,0-4.4-9.2-12.5-10.2c0,0,9-2.5,16.1,2.7c0,0-2.3-4.6-5-6.3
			C226.2,182.4,227.1,181.9,228.7,181.7z"/>
		<path style="fill:#231F20;" d="M221,268.8c-0.7,0-1.5,0-2.2,0c-13.9-0.3-21.3-13.5-23.9-19.1c-0.6,1.3-1.7,2.9-3.4,4.1
			c-2.6,1.8-6,2.3-10.1,1.5c-7.6-1.5-11.2-6.7-12.6-9.7c-1.9-3.9-2.2-8.3-0.8-11c1.5-2.9,4.7-4.9,8.2-5.2c4.5-0.3,8.8,2.1,12.4,7
			l0.8,1c0.5-5,1.4-17.1,0-23.8c-2-9.4,14.7-19.2,15.4-19.6c0.6-0.3,10.7-4.7,19.9-0.5c-2-2.6-5.3-6-9.8-6.5
			c-0.4-0.1-0.8-0.4-0.8-0.9c0-0.5,0.3-0.9,0.7-1c0.3-0.1,7-1.9,13.6,1c-0.8-1.1-1.7-2.2-2.8-2.8c-0.3-0.2-0.5-0.5-0.5-0.8
			c0-0.3,0.2-0.6,0.5-0.8c0.1-0.1,1.1-0.6,2.9-0.8l0,0c4.4-0.5,8.7,1.5,11.3,5.3c3.1,4.5,8.4,13.5,8.5,23.3c0.1,5.8,1.6,11.7,3,17.4
			c2,8,4.1,16.2,2.2,24.2C251,262.6,239.7,268.8,221,268.8z M194.9,246c0.4,0,0.8,0.3,0.9,0.6c0.1,0.2,6.9,19.8,23.1,20.2
			c19.3,0.5,30.4-5,33-16.4c1.8-7.6-0.2-15.2-2.2-23.3c-1.5-5.8-3-11.8-3.1-17.8c-0.1-9.3-5.2-17.9-8.2-22.2
			c-2.2-3.2-5.9-4.9-9.6-4.5h0c-0.2,0-0.4,0.1-0.6,0.1c2.2,2.1,3.8,5.3,3.9,5.5c0.2,0.4,0.1,0.9-0.2,1.2c-0.3,0.3-0.8,0.3-1.2,0
			c-3.7-2.7-8-3.2-11.1-3.1c5.8,2.9,8.8,9.1,9,9.5c0.2,0.4,0.1,0.9-0.3,1.1c-0.3,0.3-0.8,0.3-1.2,0c-9.1-6.7-21.2-1.4-21.3-1.3
			c-0.1,0-16.1,9.5-14.4,17.5c1.9,8.8-0.1,25.9-0.2,26.7c0,0.4-0.3,0.7-0.7,0.8c-0.4,0.1-0.8,0-1-0.3l-2.3-2.7
			c-4.1-5.5-8.1-6.5-10.8-6.2c-3.3,0.2-5.7,2.3-6.7,4.2c-1.1,2.1-0.8,6,0.8,9.3c1.3,2.6,4.4,7.3,11.2,8.6c3.6,0.7,6.5,0.3,8.6-1.2
			c2.9-2,3.5-5.4,3.5-5.4C194,246.4,194.4,246.1,194.9,246C194.8,246,194.8,246,194.9,246z M228.7,181.7L228.7,181.7L228.7,181.7z"
			/>
	</g>
	<g>
		<path style="fill:#231F20;" d="M229.4,249.1c-0.5,0-1-0.4-1-1c0-0.4,0.2-0.7,0.5-0.9c0.2-0.1,0.6-0.5,1-0.9c4.7-4.3,10-8.6,14-8.1
			c1.3,0.2,2.4,0.8,3.2,2c0.3,0.4,0.2,1-0.3,1.3s-1,0.2-1.3-0.3c-0.5-0.7-1.1-1.1-1.9-1.2c-3.8-0.4-10.1,5.4-12.5,7.6
			C230,248.9,229.9,249.1,229.4,249.1z M229.4,247.2C229.4,247.2,229.4,247.2,229.4,247.2C229.4,247.2,229.4,247.2,229.4,247.2z
			 M229.4,247.2C229.4,247.2,229.4,247.2,229.4,247.2C229.4,247.2,229.4,247.2,229.4,247.2z"/>
	</g>
	<g>
		<path style="fill:#231F20;" d="M238.6,247.9c-0.2,0-0.4-0.1-0.6-0.2c-0.4-0.3-0.4-0.9-0.1-1.3c0.2-0.2,1.9-2.1,4-2.3
			c0.9-0.1,1.8,0.3,2.5,0.9c0.4,0.4,0.4,1,0.1,1.3c-0.4,0.4-1,0.4-1.3,0.1c-0.4-0.3-0.7-0.5-1.2-0.4c-1.1,0.1-2.4,1.2-2.7,1.6
			C239.1,247.8,238.8,247.9,238.6,247.9z"/>
	</g>
	<g>
		<path style="fill:#231F20;" d="M206.2,211.5c-0.2,0-0.5-0.1-0.6-0.3c-0.4-0.4-0.4-1,0-1.3c6.2-6.6,12.1-8.4,12.4-8.4
			c0.5-0.1,1,0.1,1.2,0.7s-0.1,1-0.6,1.2c-0.1,0-5.7,1.7-11.5,7.9C206.7,211.4,206.4,211.5,206.2,211.5z"/>
	</g>
	<g>
		<path style="fill:#231F20;" d="M244.2,204.2c-0.2,0-0.3,0-0.5-0.1c-2.5-1.6-8-2.5-8.1-2.6c-0.5-0.1-0.9-0.6-0.8-1.1
			s0.6-0.9,1.1-0.8c0.2,0,5.9,1.1,8.7,2.8c0.4,0.3,0.6,0.9,0.3,1.3C244.9,204.1,244.5,204.2,244.2,204.2z"/>
	</g>
	
		<ellipse transform="matrix(0.9945 -0.105 0.105 0.9945 -22.3335 24.7914)" style="fill:#231F20;" cx="224.2" cy="224.4" rx="2.5" ry="4.3"/>
	
		<ellipse transform="matrix(0.9945 -0.105 0.105 0.9945 -21.7799 26.7094)" style="fill:#231F20;" cx="242.7" cy="220.1" rx="2.3" ry="4"/>
	<g>
		<path style="fill:#FFC89F;" d="M172.3,284.1c0,0,26.2-47.2,27.9-55.2c0,0-0.1-7.2,2.6-7.5c2.6-0.3,8.8,0.9,8.6,8.4l-4.7,12.3
			l-1.7,4.3c0,0,13.3-9.5,14.6,3.6c0,0,3.9,2.5,2.3,6.7c0,0,3.2,1.7,2.4,6.4c0,0,2.5,0.8,2.5,5.6c0,4.8-8.1,13.3-14.2,9.6
			c0,0-12.3,17.5-21.5,15.5l-4.1,6c0,0-7.6-13.7-14.7-14.7"/>
		<g>
			<path style="fill:#231F20;" d="M172.9,284.6c8-10.8,13.2-23.4,18.8-35.4c2.9-6.3,6.2-12.5,8.6-18.9c0.6-1.5,1-3.1,1.4-4.7
				c0.3-1.6,0.2-3.4,2.2-3.8c2.9-0.6,5.5,2,6.3,4.5c1.2,3.5-0.3,7.4-1.8,10.5c-1.6,3.2-3.5,6.3-4.4,9.8c-0.3,1.1,1.4,1.6,1.7,0.5
				c1.8-6.6,7.6-12.3,6.6-19.6c-0.3-2.7-1.9-5.2-4.2-6.6c-2.1-1.2-5.5-1.6-7.1,0.6c-0.8,1.1-0.8,2.7-1.1,4.1c-0.4,2-1.1,3.9-1.8,5.7
				c-1.4,3.5-3.1,6.9-4.7,10.3c-3.3,7.1-6.6,14.2-9.9,21.2c-3.5,7.3-7.2,14.5-12.1,21C170.7,284.6,172.2,285.5,172.9,284.6
				L172.9,284.6z"/>
		</g>
		<g>
			<path style="fill:#231F20;" d="M200.2,253.8c2.3-3.9,5.7-7,9.8-9c2-1,4.4-1.6,6.3-0.1c1.6,1.3,2.3,3.3,2.3,5.3
				c0,1.1,1.7,1.1,1.8,0c0-2.3-0.8-4.6-2.5-6.2c-1.9-1.9-4.5-2.1-6.9-1.2c-5.1,1.7-9.5,5.7-12.2,10.4
				C198.2,253.9,199.7,254.8,200.2,253.8L200.2,253.8z"/>
		</g>
		<g>
			<path style="fill:#231F20;" d="M204.4,257.9c2.5-3.2,5.3-6.7,9.5-7.6c1.9-0.4,3.9-0.2,5.4,1.1c1.3,1.1,2.2,2.8,1.8,4.6
				c-0.3,1.1,1.4,1.6,1.7,0.5c1.1-4.6-3.3-8.3-7.7-8c-5.3,0.3-8.9,4.4-11.9,8.3C202.5,257.5,203.7,258.7,204.4,257.9L204.4,257.9z"
				/>
		</g>
		<g>
			<path style="fill:#231F20;" d="M210.2,261.4c1.2-0.9,2.5-1.7,3.9-2.4c1.4-0.7,2.8-1.5,4.4-1.7c1.6-0.2,3.3,0.1,4.4,1.2
				c0.9,1,1.4,2.5,0.8,3.8c-0.5,1,1,1.9,1.5,0.9c0.8-1.6,0.6-3.5-0.4-5c-1.1-1.7-3-2.6-4.9-2.7c-2-0.1-3.8,0.5-5.6,1.4
				c-1.7,0.9-3.4,1.9-5,3C208.4,260.6,209.3,262.1,210.2,261.4L210.2,261.4z"/>
		</g>
		<g>
			<path style="fill:#231F20;" d="M213.5,265.6c1.7-1.5,4-2.3,6.3-2.4c1.2,0,2.3,0.2,3.5,0.6c1,0.4,2.2,1,2.6,2
				c0.3,0.8,0.2,2,0.1,2.9c-0.1,1-0.4,2.1-0.8,3c-0.9,2-2.4,3.6-4.1,4.9c-2,1.6-4.9,1.6-7.2,0.7c-0.4-0.2-1,0.2-1.1,0.6
				c-0.1,0.5,0.2,0.9,0.6,1.1c2.4,1,5.5,1,7.8-0.4c2.2-1.3,4.2-3.5,5.3-5.7c1-2.1,1.6-4.9,1.1-7.3c-0.6-2.7-4.3-3.8-6.7-4
				c-3.1-0.3-6.3,0.8-8.6,2.8C211.4,265.1,212.6,266.3,213.5,265.6L213.5,265.6z"/>
		</g>
		<g>
			<path style="fill:#231F20;" d="M216.3,271.3c-2.3,3.4-4.4,7.1-7.1,10.3c-2.3,2.7-4.5,5.3-7.3,7.5c-3,2.3-6.5,4.4-10.4,3.6
				c-1.1-0.2-1.6,1.5-0.5,1.7c3.9,0.7,7.4-0.7,10.5-2.9c1.6-1.1,3.3-2.4,4.7-3.8c1.4-1.4,2.6-3.1,3.9-4.6c1.4-1.6,2.6-3.5,3.8-5.3
				c1.3-1.9,2.5-3.8,3.8-5.7C218.4,271.3,216.9,270.4,216.3,271.3L216.3,271.3z"/>
		</g>
		<g>
			<path style="fill:#231F20;" d="M193.5,288c-2.2,4.1-4.7,8-7.3,11.9c-0.6,0.9,0.9,1.8,1.5,0.9c2.6-3.9,5.1-7.8,7.3-11.9
				C195.5,287.9,194,287,193.5,288L193.5,288z"/>
		</g>
	</g>
	<g>
		<path style="fill:#92E5FF;" d="M164.4,287.1c0,0-66.8,58.4-54.3,92c11.7,31.3,67.3,17.4,77.5-64.4l6.5-9.4c0,0-7.2-18.1-21.7-24.6
			L164.4,287.1z"/>
		<path style="fill:#231F20;" d="M131.9,395.5c-10.4,0-19-5.9-22.7-16c-12.6-33.7,51.8-90.6,54.6-93c0,0,0,0,0,0l8-6.5
			c0.3-0.2,0.7-0.3,1-0.1c14.7,6.6,21.9,24.4,22.2,25.1c0.1,0.3,0.1,0.6-0.1,0.9l-6.4,9.2c-6.5,51.9-31.4,77.7-53.2,80.3
			C134.2,395.4,133,395.5,131.9,395.5z M165,287.9c-1.2,1.1-66.1,58.5-54,90.9c3.9,10.5,12.9,15.9,24.1,14.6
			c21.1-2.5,45.2-27.8,51.6-78.9c0-0.2,0.1-0.3,0.2-0.4l6.2-9c-1.2-2.8-8.2-17.5-20.5-23.4L165,287.9z"/>
	</g>
	<g>
		<path style="fill:#231F20;" d="M391.1,386.4h-105c-0.5,0-1-0.4-1-1s0.4-1,1-1h105c0.5,0,1,0.4,1,1S391.6,386.4,391.1,386.4z"/>
	</g>
	<g>
		<g>
			<path style="fill:#FFFFFF;" d="M453.3,284.8l-127.8-0.2c-4.8,0-8.8,3.5-9.6,8.2l-13.1,84H226c-2.8,0-5.1,2.3-5.1,5.1l0,0
				c0,2.8,2.3,5.1,5.1,5.1h75.3l135.5,0.2c6.8,0,12.6-4.9,13.6-11.7l12.4-79.6C463.8,290.1,459.2,284.8,453.3,284.8z"/>
			<path style="fill:#231F20;" d="M436.8,388.1C436.8,388.1,436.8,388.1,436.8,388.1l-135.5-0.2H226c-3.4,0-6.1-2.7-6.1-6.1
				c0-3.4,2.7-6.1,6.1-6.1h76.1l12.9-83.2c0.8-5.2,5.2-9,10.5-9c0,0,0,0,0,0l127.8,0.2c3.1,0,6,1.4,8,3.7c2,2.4,2.9,5.5,2.4,8.5
				l-12.4,79.6C450.3,382.9,444.2,388.1,436.8,388.1z M226,377.7c-2.3,0-4.2,1.9-4.2,4.2c0,2.3,1.9,4.2,4.2,4.2h75.3l135.5,0.2
				c0,0,0,0,0,0c6.4,0,11.7-4.6,12.7-10.9l12.4-79.6c0.4-2.5-0.3-5.1-2-7c-1.7-1.9-4.1-3-6.6-3h0l-127.8-0.2c0,0,0,0,0,0
				c-4.3,0-7.9,3.1-8.6,7.4l-13.1,84c-0.1,0.5-0.5,0.8-0.9,0.8H226z"/>
		</g>
		<g>
			<circle style="fill:#FFFFFF;" cx="389" cy="335.6" r="9.8"/>
			<path style="fill:#231F20;" d="M389,346.4c-5.9,0-10.8-4.8-10.8-10.8s4.8-10.8,10.8-10.8s10.8,4.8,10.8,10.8
				S394.9,346.4,389,346.4z M389,326.8c-4.9,0-8.9,4-8.9,8.9s4,8.9,8.9,8.9s8.9-4,8.9-8.9S393.9,326.8,389,326.8z"/>
		</g>
	</g>
	<g>
		<path style="fill:#231F20;" d="M190.4,240.5c-0.2,0-0.4-0.1-0.6-0.2c-6.6-5.8-13.4-1.3-13.7-1.1c-0.4,0.3-1,0.2-1.3-0.2
			c-0.3-0.4-0.2-1,0.2-1.3c0.1-0.1,8.2-5.5,16,1.3c0.4,0.3,0.4,0.9,0.1,1.3C190.9,240.4,190.6,240.5,190.4,240.5z"/>
	</g>
	<path style="fill:#231F20;" d="M237.4,266.9c0,0-6.3,18.8-23.8,19.5l-2.3-5l2-4.4c0,0,0.7,2.7,6.4,0.9s6.8-7.8,7.1-10.4
		L237.4,266.9z"/>
	<g>
		<g>
			<g>
				<path style="fill:#231F20;" d="M341,247.4c-0.5,0-1-0.4-1-1v-88c0-0.5,0.4-1,1-1s1,0.4,1,1v88C342,247,341.6,247.4,341,247.4z"
					/>
			</g>
			<g>
				<path style="fill:#FFFFFF;" d="M369.8,175.6h-57.5c-2.7,0-4.9-2.2-4.9-4.9v-22.6c0-2.7,2.2-4.9,4.9-4.9h57.5
					c2.7,0,4.9,2.2,4.9,4.9v22.6C374.7,173.4,372.5,175.6,369.8,175.6z"/>
				<path style="fill:#231F20;" d="M369.8,176.5h-57.5c-3.2,0-5.8-2.6-5.8-5.8v-22.6c0-3.2,2.6-5.8,5.8-5.8h57.5
					c3.2,0,5.8,2.6,5.8,5.8v22.6C375.6,173.9,373,176.5,369.8,176.5z M312.3,144.2c-2.2,0-3.9,1.8-3.9,3.9v22.6
					c0,2.2,1.8,3.9,3.9,3.9h57.5c2.2,0,3.9-1.8,3.9-3.9v-22.6c0-2.2-1.8-3.9-3.9-3.9H312.3z"/>
			</g>
			<g>
				<path style="fill:#FFFFFF;" d="M369.8,258.5h-57.5c-2.7,0-4.9-2.2-4.9-4.9v-22.6c0-2.7,2.2-4.9,4.9-4.9h57.5
					c2.7,0,4.9,2.2,4.9,4.9v22.6C374.7,256.3,372.5,258.5,369.8,258.5z"/>
				<path style="fill:#231F20;" d="M369.8,259.5h-57.5c-3.2,0-5.8-2.6-5.8-5.8v-22.6c0-3.2,2.6-5.8,5.8-5.8h57.5
					c3.2,0,5.8,2.6,5.8,5.8v22.6C375.6,256.8,373,259.5,369.8,259.5z M312.3,227.1c-2.2,0-3.9,1.8-3.9,3.9v22.6
					c0,2.2,1.8,3.9,3.9,3.9h57.5c2.2,0,3.9-1.8,3.9-3.9v-22.6c0-2.2-1.8-3.9-3.9-3.9H312.3z"/>
			</g>
			<g>
				<path style="fill:#F9E895;" d="M360.7,211.7h-39.3c-2.7,0-4.9-2.2-4.9-4.9V193c0-2.7,2.2-4.9,4.9-4.9h39.3
					c2.7,0,4.9,2.2,4.9,4.9v13.8C365.6,209.5,363.4,211.7,360.7,211.7z"/>
				<path style="fill:#231F20;" d="M360.7,212.6h-39.3c-3.2,0-5.8-2.6-5.8-5.8V193c0-3.2,2.6-5.8,5.8-5.8h39.3
					c3.2,0,5.8,2.6,5.8,5.8v13.8C366.5,210,363.9,212.6,360.7,212.6z M321.4,189c-2.2,0-3.9,1.8-3.9,3.9v13.8c0,2.2,1.8,3.9,3.9,3.9
					h39.3c2.2,0,3.9-1.8,3.9-3.9V193c0-2.2-1.8-3.9-3.9-3.9H321.4z"/>
			</g>
		</g>
		<g>
			<circle style="fill:#231F20;" cx="320.5" cy="159" r="3.1"/>
			<circle style="fill:#231F20;" cx="334.2" cy="159" r="3.1"/>
			<circle style="fill:#231F20;" cx="347.9" cy="159" r="3.1"/>
			<circle style="fill:#231F20;" cx="361.5" cy="159" r="3.1"/>
		</g>
		<g>
			<circle style="fill:#231F20;" cx="334.2" cy="199.7" r="3.1"/>
			<circle style="fill:#231F20;" cx="347.9" cy="199.7" r="3.1"/>
		</g>
		<g>
			<circle style="fill:#231F20;" cx="320.5" cy="241.1" r="3.1"/>
			<circle style="fill:#231F20;" cx="334.2" cy="241.1" r="3.1"/>
			<circle style="fill:#231F20;" cx="347.9" cy="241.1" r="3.1"/>
			<circle style="fill:#231F20;" cx="361.5" cy="241.1" r="3.1"/>
		</g>
	</g>
	<g>
		<path style="fill:#231F20;" d="M302.8,247.7h-6.2c-6.6,0-12-5.4-12-12v-69.5c0-6.6,5.4-12,12-12c0.5,0,1,0.4,1,1s-0.4,1-1,1
			c-5.6,0-10.1,4.6-10.1,10.1v69.5c0,5.6,4.6,10.1,10.1,10.1h6.2c0.5,0,1,0.4,1,1S303.3,247.7,302.8,247.7z"/>
	</g>
	<g>
		<path style="fill:#231F20;" d="M385.4,247.7c-0.5,0-1-0.4-1-1s0.4-1,1-1c5.6,0,10.1-4.6,10.1-10.1v-69.5c0-5.6-4.6-10.1-10.1-10.1
			h-6.9c-0.5,0-1-0.4-1-1s0.4-1,1-1h6.9c6.6,0,12,5.4,12,12v69.5C397.5,242.3,392.1,247.7,385.4,247.7z"/>
	</g>
	<polygon style="fill:#231F20;" points="304.7,154.6 295.7,148.9 295.7,160.3 	"/>
	<polygon style="fill:#231F20;" points="378,246.4 387,252.1 387,240.7 	"/>
	<g>
		<g>
			<g>
				<path style="fill:#231F20;" d="M341,247.4c-0.5,0-1-0.4-1-1v-88c0-0.5,0.4-1,1-1s1,0.4,1,1v88C342,247,341.6,247.4,341,247.4z"
					/>
			</g>
			<g>
				<path style="fill:#FFFFFF;" d="M369.8,175.6h-57.5c-2.7,0-4.9-2.2-4.9-4.9v-22.6c0-2.7,2.2-4.9,4.9-4.9h57.5
					c2.7,0,4.9,2.2,4.9,4.9v22.6C374.7,173.4,372.5,175.6,369.8,175.6z"/>
				<path style="fill:#231F20;" d="M369.8,176.5h-57.5c-3.2,0-5.8-2.6-5.8-5.8v-22.6c0-3.2,2.6-5.8,5.8-5.8h57.5
					c3.2,0,5.8,2.6,5.8,5.8v22.6C375.6,173.9,373,176.5,369.8,176.5z M312.3,144.2c-2.2,0-3.9,1.8-3.9,3.9v22.6
					c0,2.2,1.8,3.9,3.9,3.9h57.5c2.2,0,3.9-1.8,3.9-3.9v-22.6c0-2.2-1.8-3.9-3.9-3.9H312.3z"/>
			</g>
			<g>
				<path style="fill:#FFFFFF;" d="M369.8,258.5h-57.5c-2.7,0-4.9-2.2-4.9-4.9v-22.6c0-2.7,2.2-4.9,4.9-4.9h57.5
					c2.7,0,4.9,2.2,4.9,4.9v22.6C374.7,256.3,372.5,258.5,369.8,258.5z"/>
				<path style="fill:#231F20;" d="M369.8,259.5h-57.5c-3.2,0-5.8-2.6-5.8-5.8v-22.6c0-3.2,2.6-5.8,5.8-5.8h57.5
					c3.2,0,5.8,2.6,5.8,5.8v22.6C375.6,256.8,373,259.5,369.8,259.5z M312.3,227.1c-2.2,0-3.9,1.8-3.9,3.9v22.6
					c0,2.2,1.8,3.9,3.9,3.9h57.5c2.2,0,3.9-1.8,3.9-3.9v-22.6c0-2.2-1.8-3.9-3.9-3.9H312.3z"/>
			</g>
			<g>
				<path style="fill:#F9E895;" d="M360.7,211.7h-39.3c-2.7,0-4.9-2.2-4.9-4.9V193c0-2.7,2.2-4.9,4.9-4.9h39.3
					c2.7,0,4.9,2.2,4.9,4.9v13.8C365.6,209.5,363.4,211.7,360.7,211.7z"/>
				<path style="fill:#231F20;" d="M360.7,212.6h-39.3c-3.2,0-5.8-2.6-5.8-5.8V193c0-3.2,2.6-5.8,5.8-5.8h39.3
					c3.2,0,5.8,2.6,5.8,5.8v13.8C366.5,210,363.9,212.6,360.7,212.6z M321.4,189c-2.2,0-3.9,1.8-3.9,3.9v13.8c0,2.2,1.8,3.9,3.9,3.9
					h39.3c2.2,0,3.9-1.8,3.9-3.9V193c0-2.2-1.8-3.9-3.9-3.9H321.4z"/>
			</g>
		</g>
		<g>
			<circle style="fill:#231F20;" cx="320.5" cy="159" r="3.1"/>
			<circle style="fill:#231F20;" cx="334.2" cy="159" r="3.1"/>
			<circle style="fill:#231F20;" cx="347.9" cy="159" r="3.1"/>
			<circle style="fill:#231F20;" cx="361.5" cy="159" r="3.1"/>
		</g>
		<g>
			<circle style="fill:#231F20;" cx="334.2" cy="199.7" r="3.1"/>
			<circle style="fill:#231F20;" cx="347.9" cy="199.7" r="3.1"/>
		</g>
		<g>
			<circle style="fill:#231F20;" cx="320.5" cy="241.1" r="3.1"/>
			<circle style="fill:#231F20;" cx="334.2" cy="241.1" r="3.1"/>
			<circle style="fill:#231F20;" cx="347.9" cy="241.1" r="3.1"/>
			<circle style="fill:#231F20;" cx="361.5" cy="241.1" r="3.1"/>
		</g>
	</g>
	<g>
		<path style="fill:#231F20;" d="M302.8,247.7h-6.2c-6.6,0-12-5.4-12-12v-69.5c0-6.6,5.4-12,12-12c0.5,0,1,0.4,1,1s-0.4,1-1,1
			c-5.6,0-10.1,4.6-10.1,10.1v69.5c0,5.6,4.6,10.1,10.1,10.1h6.2c0.5,0,1,0.4,1,1S303.3,247.7,302.8,247.7z"/>
	</g>
	<g>
		<path style="fill:#231F20;" d="M385.4,247.7c-0.5,0-1-0.4-1-1s0.4-1,1-1c5.6,0,10.1-4.6,10.1-10.1v-69.5c0-5.6-4.6-10.1-10.1-10.1
			h-6.9c-0.5,0-1-0.4-1-1s0.4-1,1-1h6.9c6.6,0,12,5.4,12,12v69.5C397.5,242.3,392.1,247.7,385.4,247.7z"/>
	</g>
	<polygon style="fill:#231F20;" points="304.7,154.6 295.7,148.9 295.7,160.3 	"/>
	<polygon style="fill:#231F20;" points="378,246.4 387,252.1 387,240.7 	"/>
	<g>
		<g>
			<path style="fill:#231F20;" d="M151.7,166.7c1.8,0.2,3.4,1.1,5.1,1.9c1.7,0.9,3.4,1.6,5.4,1.9c0.5,0.1,0.9-0.4,0.9-0.9
				c0-0.5-0.4-0.8-0.9-0.9c-1.8-0.2-3.4-1.1-5.1-1.9c-1.7-0.9-3.4-1.6-5.4-1.9c-0.5-0.1-0.9,0.4-0.9,0.9
				C150.9,166.3,151.3,166.6,151.7,166.7L151.7,166.7z"/>
		</g>
		<g>
			<path style="fill:#231F20;" d="M154.4,155.9c4.4,1.5,7.5,5.4,11.9,6.9c1.1,0.4,1.5-1.3,0.5-1.7c-4.4-1.5-7.5-5.4-11.9-6.9
				C153.8,153.8,153.3,155.5,154.4,155.9L154.4,155.9z"/>
		</g>
	</g>
	<g>
		<g>
			<path style="fill:#231F20;" d="M228.5,145.4c1.2-4.5,4.7-7.9,5.9-12.4c0.3-1.1-1.4-1.6-1.7-0.5c-1.2,4.5-4.7,7.9-5.9,12.4
				C226.5,146.1,228.2,146.5,228.5,145.4L228.5,145.4z"/>
		</g>
		<g>
			<path style="fill:#231F20;" d="M234.7,147.8c1.2-4.5,4.7-7.9,5.9-12.4c0.3-1.1-1.4-1.6-1.7-0.5c-1.2,4.5-4.7,7.9-5.9,12.4
				C232.7,148.4,234.4,148.9,234.7,147.8L234.7,147.8z"/>
		</g>
	</g>
	<g>
		<path style="fill:#231F20;" d="M186.2,135.2c-3.4,2.2-4,7.4-1.3,10.4c1.7,1.9,4.5,2.5,6.9,2.4c2.6-0.1,5.1-1.1,6.9-3.1
			c1.6-1.9,2.5-4.4,2.1-6.8c-0.4-2.3-2-4.3-4.1-5.2c-4.4-1.9-10.1,2.6-7.8,7.4c1.1,2.3,4.2,3.2,6,1.3c1.7-1.8,0.4-4.9-2.1-4.9
			c0.1,0.5,0.3,1.1,0.4,1.6c0.6-0.4,1.4,0.1,1.6,0.8c0.3,1-0.6,2-1.4,2.5c-0.8,0.5-1.8,0.8-2.7,0.9c-1.2,0.2-1.7-0.5-2.1-1.5
			c-0.9-2.8-0.4-6.4,1.9-8.3c2.9-2.5,7.2-1.1,9.4,1.7c2.2,2.9,2.1,6.9,0.4,10c-1.9,3.5-6,6.5-10.1,5c-1.1-0.4-1.5,1.3-0.5,1.7
			c4.8,1.8,9.9-1.8,12.1-6c2.3-4.4,1.9-9.9-1.9-13.3c-3.6-3.2-9.5-3-12.1,1.4c-1.1,1.8-1.5,4-1.3,6.1c0.2,2,1,4.8,3.4,5
			c2.5,0.2,6-1.4,6.5-4c0.5-2.4-1.8-4.7-4.2-3.4c-0.8,0.4-0.4,1.6,0.4,1.6c0.6,0,1.1,0.6,1.1,1.2c0,0.8-1,1.3-1.7,1.2
			c-1.7-0.1-2.4-2.3-2-3.7c0.5-1.6,1.9-2.8,3.5-3c1.5-0.2,3.1,0.6,4.1,1.7c2.4,2.8,1.3,7-1.6,9c-2.7,1.8-7.5,2.2-9.9-0.4
			c-2-2.1-1.6-6.1,0.9-7.7C188,136.1,187.2,134.6,186.2,135.2L186.2,135.2z"/>
	</g>
	<g>
		<g>
			<path style="fill:#93A86A;" d="M88.2,358.9c0,0-7.7-51.9-25.5-83.4S59.9,323.2,88.2,358.9z"/>
			<path style="fill:#231F20;" d="M88.2,359.9c-0.3,0-0.6-0.1-0.7-0.4c-22.6-28.5-36.4-82.9-32.8-90.7c0.5-1.2,1.4-1.4,1.9-1.4
				c1.2-0.1,3.1,0.8,7,7.7c17.7,31.3,25.5,83.2,25.6,83.7c0.1,0.4-0.2,0.8-0.6,1C88.5,359.8,88.4,359.9,88.2,359.9z M56.6,269.2
				c0,0-0.2,0.2-0.4,1c-2.1,9.6,10.8,57.9,30.5,85.1c-2.2-12.5-10-53.2-24.8-79.3C58,269.1,56.6,269.2,56.6,269.2L56.6,269.2z"/>
		</g>
		<g>
			<path style="fill:#93A86A;" d="M90.3,353.6c0,0,2.8-61.6,21.2-101.1S121.6,307.5,90.3,353.6z"/>
			<path style="fill:#231F20;" d="M90.3,354.6c-0.1,0-0.2,0-0.3,0c-0.4-0.1-0.7-0.5-0.6-0.9c0-0.6,3-62.2,21.3-101.4
				c4.1-8.8,6.4-9.9,7.8-10c0.6,0,1.6,0.2,2.4,1.6c5.2,9.5-5.1,74.2-29.7,110.4C91,354.4,90.7,354.6,90.3,354.6z M118.5,244
				C118.5,244,118.5,244,118.5,244c-0.3,0-2.2,0.5-6.1,8.9c-15.6,33.5-20,83.5-20.9,97.2c22.3-35.5,32.4-96.8,27.6-105.5
				C119,244.4,118.8,244,118.5,244z"/>
		</g>
		<g>
			<path style="fill:#93A86A;" d="M90.6,360.5c0,0-17.4-58.9-12.9-102.6C82.1,214.2,105,306.1,90.6,360.5z"/>
			<path style="fill:#231F20;" d="M90.6,361.5c-0.4,0-0.8-0.3-0.9-0.7c-0.2-0.6-17.4-59.6-12.9-103c1-9.8,2.8-11.6,4.1-12.1
				c0.6-0.2,1.6-0.3,2.7,0.7c8,7.1,19.2,71.8,8,114.4C91.4,361.2,91,361.5,90.6,361.5C90.6,361.5,90.6,361.5,90.6,361.5z
				 M81.6,247.4c0,0-0.1,0-0.1,0c-0.3,0.1-1.9,1.2-2.9,10.6c-3.8,37,8.3,85.5,11.9,98.8c9.4-41.2-0.9-102.4-8.2-109
				C82.1,247.6,81.8,247.4,81.6,247.4z"/>
		</g>
		<g>
			<polygon style="fill:#FFFFFF;" points="72,402.6 64.2,335.8 110.4,336.7 101.7,401.7 			"/>
			<path style="fill:#231F20;" d="M72,403.6c-0.5,0-0.9-0.4-0.9-0.8l-7.8-66.8c0-0.3,0.1-0.5,0.2-0.7c0.2-0.2,0.5-0.3,0.7-0.3
				l46.2,0.9c0.3,0,0.5,0.1,0.7,0.3c0.2,0.2,0.3,0.5,0.2,0.7l-8.7,65c-0.1,0.5-0.4,0.8-0.9,0.8L72,403.6C72,403.6,72,403.6,72,403.6
				z M65.3,336.8l7.6,64.9l28.1-0.9l8.4-63.1L65.3,336.8z"/>
		</g>
		<g>
			<path style="fill:#231F20;" d="M78.1,374.4c-0.5,0-0.9-0.4-0.9-0.8l-2.8-23.8c-0.1-0.5,0.3-1,0.8-1.1c0.5-0.1,1,0.3,1.1,0.8
				l2.8,23.8c0.1,0.5-0.3,1-0.8,1.1C78.2,374.4,78.2,374.4,78.1,374.4z"/>
		</g>
		<g>
			<path style="fill:#231F20;" d="M97.4,396.5C97.4,396.5,97.3,396.5,97.4,396.5c-0.6,0-1-0.5-0.9-1l1.7-19.8c0-0.5,0.5-0.9,1-0.9
				c0.5,0,0.9,0.5,0.9,1l-1.7,19.8C98.3,396.1,97.9,396.5,97.4,396.5z"/>
		</g>
		<g>
			<path style="fill:#231F20;" d="M71.2,314.8c-0.4,0-0.8-0.2-0.9-0.6l-5.9-16.7c-0.2-0.5,0.1-1,0.6-1.2c0.5-0.2,1,0.1,1.2,0.6
				l5.9,16.7c0.2,0.5-0.1,1-0.6,1.2C71.4,314.7,71.3,314.8,71.2,314.8z"/>
		</g>
		<g>
			<path style="fill:#231F20;" d="M90.9,326.8C90.9,326.8,90.9,326.8,90.9,326.8c-0.6-0.1-1-0.5-0.9-1c1.2-12.4-2.1-32-2.1-32.2
				c-0.1-0.5,0.3-1,0.8-1.1c0.5-0.1,1,0.3,1.1,0.8c0.1,0.8,3.3,20,2.1,32.7C91.8,326.4,91.4,326.8,90.9,326.8z"/>
		</g>
		<g>
			<path style="fill:#231F20;" d="M107.6,278.1c-0.1,0-0.2,0-0.3,0c-0.5-0.1-0.8-0.7-0.7-1.2c2.8-10.3,6.1-19.7,6.1-19.8
				c0.2-0.5,0.7-0.8,1.2-0.6c0.5,0.2,0.8,0.7,0.6,1.2c0,0.1-3.3,9.5-6.1,19.7C108.4,277.8,108,278.1,107.6,278.1z"/>
		</g>
	</g>
	<g>
		<path style="fill:#231F20;" d="M237.3,235.4c-0.4,0-0.7-0.2-0.9-0.6c-0.2-0.5,0-1,0.5-1.2c1.4-0.6,2.3-1.3,2.7-2.3
			c0.5-1.3-0.3-2.6-0.3-2.6c-0.3-0.5-0.1-1,0.3-1.3c0.5-0.3,1-0.1,1.3,0.3c0,0.1,1.2,2.1,0.5,4.2c-0.5,1.5-1.8,2.7-3.8,3.4
			C237.6,235.3,237.5,235.4,237.3,235.4z"/>
	</g>
	<circle style="opacity:0.2;fill:#EF4136;" cx="222.5" cy="238.7" r="5.1"/>
	<circle style="opacity:0.2;fill:#EF4136;" cx="247.4" cy="231.2" r="3.6"/>
</g>
</svg>
